<svg width="54" height="71" viewBox="0 0 54 71" fill="none" xmlns="http://www.w3.org/2000/svg">
<path d="M2.736 67C2.472 67 2.25 66.91 2.07 66.73C1.89 66.55 1.8 66.328 1.8 66.064V53.878C1.8 53.602 1.89 53.38 2.07 53.212C2.25 53.032 2.472 52.942 2.736 52.942C3.012 52.942 3.234 53.032 3.402 53.212C3.582 53.38 3.672 53.602 3.672 53.878V59.044H12.024V53.878C12.024 53.602 12.114 53.38 12.294 53.212C12.474 53.032 12.696 52.942 12.96 52.942C13.236 52.942 13.458 53.032 13.626 53.212C13.794 53.38 13.878 53.602 13.878 53.878V66.064C13.878 66.328 13.794 66.55 13.626 66.73C13.458 66.91 13.236 67 12.96 67C12.696 67 12.474 66.91 12.294 66.73C12.114 66.55 12.024 66.328 12.024 66.064V60.7H3.672V66.064C3.672 66.328 3.582 66.55 3.402 66.73C3.234 66.91 3.012 67 2.736 67ZM21.4037 67.072C20.5277 67.072 19.7417 66.856 19.0457 66.424C18.3497 65.98 17.7977 65.386 17.3897 64.642C16.9937 63.886 16.7957 63.034 16.7957 62.086C16.7957 61.138 17.0117 60.286 17.4437 59.53C17.8877 58.774 18.4817 58.18 19.2257 57.748C19.9817 57.304 20.8277 57.082 21.7637 57.082C22.6997 57.082 23.5397 57.304 24.2837 57.748C25.0277 58.18 25.6157 58.774 26.0477 59.53C26.4917 60.286 26.7137 61.138 26.7137 62.086H26.0117C26.0117 63.034 25.8077 63.886 25.3997 64.642C25.0037 65.386 24.4577 65.98 23.7617 66.424C23.0657 66.856 22.2797 67.072 21.4037 67.072ZM21.7637 65.452C22.3757 65.452 22.9217 65.308 23.4017 65.02C23.8817 64.72 24.2597 64.318 24.5357 63.814C24.8117 63.298 24.9497 62.722 24.9497 62.086C24.9497 61.438 24.8117 60.862 24.5357 60.358C24.2597 59.842 23.8817 59.44 23.4017 59.152C22.9217 58.852 22.3757 58.702 21.7637 58.702C21.1637 58.702 20.6177 58.852 20.1257 59.152C19.6457 59.44 19.2617 59.842 18.9737 60.358C18.6977 60.862 18.5597 61.438 18.5597 62.086C18.5597 62.722 18.6977 63.298 18.9737 63.814C19.2617 64.318 19.6457 64.72 20.1257 65.02C20.6177 65.308 21.1637 65.452 21.7637 65.452ZM25.7957 67.018C25.5317 67.018 25.3097 66.934 25.1297 66.766C24.9617 66.586 24.8777 66.364 24.8777 66.1V63.346L25.2197 61.438L26.7137 62.086V66.1C26.7137 66.364 26.6237 66.586 26.4437 66.766C26.2757 66.934 26.0597 67.018 25.7957 67.018ZM34.3962 67.072C33.4602 67.072 32.6202 66.856 31.8762 66.424C31.1322 65.98 30.5442 65.38 30.1122 64.624C29.6802 63.868 29.4582 63.016 29.4462 62.068V53.86C29.4462 53.584 29.5302 53.362 29.6982 53.194C29.8782 53.026 30.1002 52.942 30.3642 52.942C30.6402 52.942 30.8622 53.026 31.0302 53.194C31.1982 53.362 31.2822 53.584 31.2822 53.86V58.72C31.7022 58.216 32.2062 57.82 32.7942 57.532C33.3942 57.232 34.0482 57.082 34.7562 57.082C35.6322 57.082 36.4182 57.304 37.1142 57.748C37.8102 58.18 38.3562 58.774 38.7522 59.53C39.1602 60.274 39.3642 61.12 39.3642 62.068C39.3642 63.016 39.1422 63.868 38.6982 64.624C38.2662 65.38 37.6782 65.98 36.9342 66.424C36.1902 66.856 35.3442 67.072 34.3962 67.072ZM34.3962 65.452C35.0082 65.452 35.5542 65.308 36.0342 65.02C36.5142 64.72 36.8922 64.312 37.1682 63.796C37.4562 63.28 37.6002 62.704 37.6002 62.068C37.6002 61.42 37.4562 60.844 37.1682 60.34C36.8922 59.836 36.5142 59.44 36.0342 59.152C35.5542 58.852 35.0082 58.702 34.3962 58.702C33.7962 58.702 33.2502 58.852 32.7582 59.152C32.2782 59.44 31.9002 59.836 31.6242 60.34C31.3482 60.844 31.2102 61.42 31.2102 62.068C31.2102 62.704 31.3482 63.28 31.6242 63.796C31.9002 64.312 32.2782 64.72 32.7582 65.02C33.2502 65.308 33.7962 65.452 34.3962 65.452ZM43.2004 67C42.9364 67 42.7144 66.916 42.5344 66.748C42.3664 66.568 42.2824 66.346 42.2824 66.082V58.072C42.2824 57.796 42.3664 57.574 42.5344 57.406C42.7144 57.238 42.9364 57.154 43.2004 57.154C43.4764 57.154 43.6984 57.238 43.8664 57.406C44.0344 57.574 44.1184 57.796 44.1184 58.072V66.082C44.1184 66.346 44.0344 66.568 43.8664 66.748C43.6984 66.916 43.4764 67 43.2004 67ZM43.2004 55.552C42.8764 55.552 42.5944 55.438 42.3544 55.21C42.1264 54.97 42.0124 54.688 42.0124 54.364C42.0124 54.04 42.1264 53.764 42.3544 53.536C42.5944 53.296 42.8764 53.176 43.2004 53.176C43.5244 53.176 43.8004 53.296 44.0284 53.536C44.2684 53.764 44.3884 54.04 44.3884 54.364C44.3884 54.688 44.2684 54.97 44.0284 55.21C43.8004 55.438 43.5244 55.552 43.2004 55.552ZM51.1161 67C50.5161 67 49.9761 66.85 49.4961 66.55C49.0161 66.238 48.6381 65.818 48.3621 65.29C48.0861 64.762 47.9481 64.168 47.9481 63.508V54.922C47.9481 54.658 48.0321 54.442 48.2001 54.274C48.3681 54.106 48.5841 54.022 48.8481 54.022C49.1121 54.022 49.3281 54.106 49.4961 54.274C49.6641 54.442 49.7481 54.658 49.7481 54.922V63.508C49.7481 63.988 49.8801 64.39 50.1441 64.714C50.4081 65.038 50.7321 65.2 51.1161 65.2H51.7281C51.9441 65.2 52.1241 65.284 52.2681 65.452C52.4241 65.62 52.5021 65.836 52.5021 66.1C52.5021 66.364 52.4001 66.58 52.1961 66.748C52.0041 66.916 51.7521 67 51.4401 67H51.1161ZM47.1201 59.062C46.8681 59.062 46.6641 58.99 46.5081 58.846C46.3521 58.702 46.2741 58.522 46.2741 58.306C46.2741 58.066 46.3521 57.874 46.5081 57.73C46.6641 57.586 46.8681 57.514 47.1201 57.514H51.2781C51.5301 57.514 51.7341 57.586 51.8901 57.73C52.0461 57.874 52.1241 58.066 52.1241 58.306C52.1241 58.522 52.0461 58.702 51.8901 58.846C51.7341 58.99 51.5301 59.062 51.2781 59.062H47.1201Z" fill="black"/>
<path d="M19.2775 20.3182C20.0998 17.25 23.2537 14.0961 26.322 13.2738L45.4509 8.14743C48.5192 7.32516 50.3399 9.14591 49.5177 12.2142L44.3913 31.3432C43.569 34.4114 40.4151 37.5653 37.3469 38.3876L18.2179 43.514C15.1496 44.3362 13.3289 42.5155 14.1511 39.4472L19.2775 20.3182Z" fill="#B8B8FF"/>
<path d="M11.6088 12.6493C12.4311 9.58107 15.585 6.42717 18.6533 5.60491L37.7822 0.47854C40.8505 -0.343725 42.6713 1.47702 41.849 4.54529L36.7226 23.6743C35.9004 26.7425 32.7465 29.8964 29.6782 30.7187L10.5492 35.8451C7.48093 36.6673 5.66018 34.8466 6.48245 31.7783L11.6088 12.6493Z" fill="#5051F9"/>
</svg>
